<?xml version="1.0" encoding="UTF-8"?>
<svg version="1.1" xmlns="http://www.w3.org/2000/svg" width="80" height="80">
<path d="M0 0 C8.80288754 6.34043826 15.4186507 14.72648904 17.58203125 25.4921875 C18.92007691 37.90936834 17.85729499 48.88109459 10.39453125 59.2421875 C3.58210875 67.3274193 -4.72289951 73.55522767 -15.48876953 74.71533203 C-28.40007937 75.61089799 -39.16843729 74.04490094 -49.3515625 65.46484375 C-57.86959925 57.33325857 -62.42046403 48.68416257 -62.88867188 36.85693359 C-63.04371176 24.34263074 -60.22647828 14.71931927 -51.41796875 5.4921875 C-37.63784493 -7.66275112 -16.31305228 -10.17259803 0 0 Z " fill="#1B1D1E" transform="translate(62.41796875,5.5078125)"/>
<path d="M0 0 C-0.375 2.4375 -0.375 2.4375 -1 5 C-1.99 5.495 -1.99 5.495 -3 6 C-2.34 6.33 -1.68 6.66 -1 7 C-1 7.66 -1 8.32 -1 9 C-1.66 9 -2.32 9 -3 9 C-3 9.66 -3 10.32 -3 11 C-4.875 13.125 -4.875 13.125 -7 15 C-7.66 15 -8.32 15 -9 15 C-8.34 20.28 -7.68 25.56 -7 31 C-7.99 30.67 -8.98 30.34 -10 30 C-9.07584923 32.83846309 -8.1662474 35.62594334 -6.953125 38.35546875 C-5.91003859 41.24960605 -5.66727394 43.55591174 -5.625 46.625 C-5.59664062 47.56601562 -5.56828125 48.50703125 -5.5390625 49.4765625 C-6 52 -6 52 -7.70703125 53.70703125 C-10.11288867 55.06365613 -12.47469352 56.09841523 -15.0625 57.0625 C-18.066607 58.18734608 -20.30455704 59.20303802 -23 61 C-23.99 61 -24.98 61 -26 61 C-26.268125 60.401875 -26.53625 59.80375 -26.8125 59.1875 C-27.8560011 56.98226124 -27.8560011 56.98226124 -29.5 55.625 C-34.52111111 50.18546296 -33.46570267 41.37495473 -33.30859375 34.4921875 C-32.75997662 23.57903186 -27.70565262 15.44679503 -19.93359375 8.02734375 C-15.44121385 4.24217214 -5.97658625 -2.98829312 0 0 Z " fill="#EBEBEC" transform="translate(33,1)"/>
<path d="M0 0 C3 4.22222222 3 4.22222222 3 7 C3.969375 7.309375 4.93875 7.61875 5.9375 7.9375 C9 9 9 9 10 10 C11.34267413 10.08631874 12.68974322 10.10706473 14.03515625 10.09765625 C14.84404297 10.09443359 15.65292969 10.09121094 16.48632812 10.08789062 C17.7615332 10.07532227 17.7615332 10.07532227 19.0625 10.0625 C19.91650391 10.05798828 20.77050781 10.05347656 21.65039062 10.04882812 C23.76695663 10.03700373 25.88348685 10.01906769 28 10 C28 9.34 28 8.68 28 8 C29.98600337 6.6459068 31.98817543 5.31542376 34 4 C35.35477684 2.68846072 36.69249374 1.35866955 38 0 C39.84373465 1.06553496 41.67479236 2.15303177 43.5 3.25 C44.5209375 3.85328125 45.541875 4.4565625 46.59375 5.078125 C47.3878125 5.71234375 48.181875 6.3465625 49 7 C49 11 49 11 47.6015625 12.74609375 C36.2086637 22.495353 25.85482774 24.78309477 11.18359375 24.17480469 C1.3491039 23.38751771 -6.68183264 17.87823042 -13.078125 10.65234375 C-17.71428571 4.85714286 -17.71428571 4.85714286 -19 1 C-17.02 1.99 -17.02 1.99 -15 3 C-15 3.99 -15 4.98 -15 6 C-14.16855469 5.566875 -13.33710938 5.13375 -12.48046875 4.6875 C-11.39378906 4.130625 -10.30710937 3.57375 -9.1875 3 C-8.10855469 2.443125 -7.02960937 1.88625 -5.91796875 1.3125 C-3 0 -3 0 0 0 Z " fill="#751F1D" transform="translate(22,56)"/>
<path d="M0 0 C0.59732819 2.76264289 1 5.16032769 1 8 C-1.97 8 -4.94 8 -8 8 C-8 9.65 -8 11.3 -8 13 C-2.555 13.495 -2.555 13.495 3 14 C3 14.66 3 15.32 3 16 C2.34 16 1.68 16 1 16 C1.33 16.99 1.66 17.98 2 19 C1.07796291 21.36522558 0.08301035 23.70401807 -1 26 C-2.65 25.34 -4.3 24.68 -6 24 C-6 24.99 -6 25.98 -6 27 C-6.66 27.66 -7.32 28.32 -8 29 C-7.34 29.33 -6.68 29.66 -6 30 C-6.33 30.99 -6.66 31.98 -7 33 C-10.33333333 33 -13.66666667 33 -17 33 C-16.34 33.45375 -15.68 33.9075 -15 34.375 C-14.34 34.91125 -13.68 35.4475 -13 36 C-13 36.66 -13 37.32 -13 38 C-12.01 38.33 -11.02 38.66 -10 39 C-8.82244087 41.94389782 -8.96651304 42.89953913 -10 46 C-15.21130865 45.59126991 -18.39958746 44.918096 -22 41 C-22.8125 37.75 -22.8125 37.75 -23 35 C-22.34 35 -21.68 35 -21 35 C-21.11512153 33.27014758 -21.24255677 31.54111249 -21.375 29.8125 C-21.44460937 28.84957031 -21.51421875 27.88664062 -21.5859375 26.89453125 C-22.04132888 23.71108774 -22.64780002 20.35219998 -25 18 C-25.04063832 16.33382885 -25.042721 14.66611905 -25 13 C-24.34 13 -23.68 13 -23 13 C-23.020625 11.741875 -23.04125 10.48375 -23.0625 9.1875 C-23.10886083 6.35948913 -22.91692961 4.75078884 -22 2 C-15.29686657 -2.46875562 -7.61534885 -0.81347999 0 0 Z M3 16 C3.66 16.33 4.32 16.66 5 17 C4.01 17 3.02 17 2 17 C2.33 16.67 2.66 16.34 3 16 Z " fill="#3D261F" transform="translate(48,18)"/>
<path d="M0 0 C5.61 0 11.22 0 17 0 C16.01 0.66 15.02 1.32 14 2 C14.72008301 7.43283614 14.72008301 7.43283614 17.9375 11.375 C18.618125 11.58125 19.29875 11.7875 20 12 C23 14 23 14 23.75 16 C24.11616056 20.39392676 23.55064647 24.63718562 23 29 C24.485 29.99 24.485 29.99 26 31 C25.125 37.75 25.125 37.75 24 40 C22.515 39.505 22.515 39.505 21 39 C21 38.34 21 37.68 21 37 C21.66 37 22.32 37 23 37 C23 36.34 23 35.68 23 35 C23.66 35 24.32 35 25 35 C25 34.01 25 33.02 25 32 C23.02 32.66 21.04 33.32 19 34 C19 33.34 19 32.68 19 32 C15.37 32 11.74 32 8 32 C7 28 7 28 8 26 C10.97 26 13.94 26 17 26 C16.67 23.69 16.34 21.38 16 19 C13.64640498 18.77584809 11.29351589 18.57040942 8.9375 18.375 C7.62652344 18.25898438 6.31554687 18.14296875 4.96484375 18.0234375 C0.74037732 17.99846528 -2.04586159 18.6528163 -6 20 C-6 20.99 -6 21.98 -6 23 C-6.66 23 -7.32 23 -8 23 C-8 20.69 -8 18.38 -8 16 C-7.34 16 -6.68 16 -6 16 C-5.34 14.68 -4.68 13.36 -4 12 C-3.34 12 -2.68 12 -2 12 C-2 11.34 -2 10.68 -2 10 C-1.34 10 -0.68 10 0 10 C0 9.34 0 8.68 0 8 C-0.99 7.67 -1.98 7.34 -3 7 C-2.01 6.34 -1.02 5.68 0 5 C0 3.35 0 1.7 0 0 Z M17 34 C17.99 34.495 17.99 34.495 19 35 C18.01 35.495 18.01 35.495 17 36 C17 35.34 17 34.68 17 34 Z " fill="#181C1E" transform="translate(32,0)"/>
<path d="M0 0 C4.79016959 2.23462006 8.98745115 4.48901975 13 8 C10.14522969 14.43016226 4.29868641 18.3688217 -1.93359375 21.3203125 C-5.37338133 22.45173601 -8.40818954 22.25655789 -12 22 C-12 21.34 -12 20.68 -12 20 C-17.61 19.67 -23.22 19.34 -29 19 C-28.01 15.535 -28.01 15.535 -27 12 C-22.38 12 -17.76 12 -13 12 C-13 11.34 -13 10.68 -13 10 C-11.68 10 -10.36 10 -9 10 C-9 9.34 -9 8.68 -9 8 C-7 6.66666667 -5 5.33333333 -3 4 C-1.16699091 1.89424357 -1.16699091 1.89424357 0 0 Z " fill="#5F1919" transform="translate(59,56)"/>
<path d="M0 0 C8.69938743 9.94215706 9.71789342 20.00020791 9.20556641 32.77685547 C8.76698697 37.51997222 7.09135106 41.76127955 5 46 C4.34 46 3.68 46 3 46 C3.14126626 42.93722733 3.28784396 39.87486458 3.4375 36.8125 C3.49647461 35.51602539 3.49647461 35.51602539 3.55664062 34.19335938 C3.76347016 30.04085878 4.00103531 26.05462138 5 22 C3.700625 22.0928125 3.700625 22.0928125 2.375 22.1875 C-1.44199033 21.97544498 -3.71077536 20.87955693 -7 19 C-6.01 15.7 -5.02 12.4 -4 9 C-3.34 9 -2.68 9 -2 9 C-2.04125 8.071875 -2.0825 7.14375 -2.125 6.1875 C-2 3 -2 3 0 0 Z " fill="#28282E" transform="translate(71,14)"/>
<path d="M0 0 C0 1.32 0 2.64 0 4 C2.475 4.495 2.475 4.495 5 5 C5 5.66 5 6.32 5 7 C5.66 7.33 6.32 7.66 7 8 C0.62641289 8.96205088 -5.55929529 9.10655578 -12 9 C-12.33 10.98 -12.66 12.96 -13 15 C-11.35 15.33 -9.7 15.66 -8 16 C-7.67 15.34 -7.34 14.68 -7 14 C-5.35 14 -3.7 14 -2 14 C-1.34 15.32 -0.68 16.64 0 18 C-1.65 18.66 -3.3 19.32 -5 20 C-5 20.66 -5 21.32 -5 22 C-4.34 22.33 -3.68 22.66 -3 23 C-3 23.66 -3 24.32 -3 25 C-5.31 25 -7.62 25 -10 25 C-10.103125 24.360625 -10.20625 23.72125 -10.3125 23.0625 C-10.6528125 22.0415625 -10.6528125 22.0415625 -11 21 C-11.99 20.67 -12.98 20.34 -14 20 C-15.6875 17.4375 -15.6875 17.4375 -17 15 C-16.34 14.67 -15.68 14.34 -15 14 C-15.020625 12.741875 -15.04125 11.48375 -15.0625 10.1875 C-15.10886083 7.35948913 -14.91692961 5.75078884 -14 3 C-9.11239987 0.36069593 -5.63797249 -0.34518199 0 0 Z " fill="#93573F" transform="translate(40,17)"/>
<path d="M0 0 C5.61 0 11.22 0 17 0 C16.01 0.66 15.02 1.32 14 2 C14.72008301 7.43283614 14.72008301 7.43283614 17.9375 11.375 C18.618125 11.58125 19.29875 11.7875 20 12 C23 14 23 14 23.6875 16.625 C23.790625 17.40875 23.89375 18.1925 24 19 C22.824375 18.0409375 22.824375 18.0409375 21.625 17.0625 C19.20460719 15.01857687 19.20460719 15.01857687 17 14 C17 13.34 17 12.68 17 12 C13.7 12.66 10.4 13.32 7 14 C6.67 13.34 6.34 12.68 6 12 C5.34 12 4.68 12 4 12 C3.34 12.66 2.68 13.32 2 14 C1.01 13.67 0.02 13.34 -1 13 C-1.33 12.01 -1.66 11.02 -2 10 C-1.34 10 -0.68 10 0 10 C0 9.34 0 8.68 0 8 C-0.99 7.67 -1.98 7.34 -3 7 C-2.01 6.34 -1.02 5.68 0 5 C0 3.35 0 1.7 0 0 Z " fill="#2C3D35" transform="translate(32,0)"/>
<path d="M0 0 C0.33 1.32 0.66 2.64 1 4 C0.01 3.67 -0.98 3.34 -2 3 C-1.07584923 5.83846309 -0.1662474 8.62594334 1.046875 11.35546875 C2.08996141 14.24960605 2.33272606 16.55591174 2.375 19.625 C2.40335938 20.56601562 2.43171875 21.50703125 2.4609375 22.4765625 C2 25 2 25 0.1015625 26.8359375 C-2 28 -2 28 -4 28 C-4 24.37 -4 20.74 -4 17 C-6.31 16.67 -8.62 16.34 -11 16 C-11 11.38 -11 6.76 -11 2 C-7.37 2 -3.74 2 0 2 C0 1.34 0 0.68 0 0 Z " fill="#CECFCF" transform="translate(25,28)"/>
<path d="M0 0 C3 4.22222222 3 4.22222222 3 7 C3.99 7.33 4.98 7.66 6 8 C6 8.66 6 9.32 6 10 C6.66 10.33 7.32 10.66 8 11 C7.67 11.66 7.34 12.32 7 13 C4.97456444 13.25719817 2.94649776 13.50842122 0.91015625 13.65625 C-1.23522156 13.85476212 -1.23522156 13.85476212 -3 16 C-5.3671875 16.3828125 -5.3671875 16.3828125 -8 16 C-12.85072732 12.00214781 -16.61975231 6.80185373 -19 1 C-17.02 1.99 -17.02 1.99 -15 3 C-15 3.99 -15 4.98 -15 6 C-14.16855469 5.566875 -13.33710938 5.13375 -12.48046875 4.6875 C-11.39378906 4.130625 -10.30710937 3.57375 -9.1875 3 C-8.10855469 2.443125 -7.02960937 1.88625 -5.91796875 1.3125 C-3 0 -3 0 0 0 Z " fill="#983C33" transform="translate(22,56)"/>
<path d="M0 0 C4.84615385 3.23076923 4.84615385 3.23076923 5.625 7.125 C5.74875 8.07375 5.8725 9.0225 6 10 C6.99 10.66 7.98 11.32 9 12 C8.125 18.75 8.125 18.75 7 21 C6.01 20.67 5.02 20.34 4 20 C4 19.34 4 18.68 4 18 C4.66 18 5.32 18 6 18 C6 17.34 6 16.68 6 16 C6.66 16 7.32 16 8 16 C8 15.01 8 14.02 8 13 C6.02 13.66 4.04 14.32 2 15 C2 14.34 2 13.68 2 13 C-1.63 13 -5.26 13 -9 13 C-10 9 -10 9 -9 7 C-6.03 7 -3.06 7 0 7 C-0.33 6.01 -0.66 5.02 -1 4 C-0.5625 1.8125 -0.5625 1.8125 0 0 Z M0 15 C0.99 15.495 0.99 15.495 2 16 C1.01 16.495 1.01 16.495 0 17 C0 16.34 0 15.68 0 15 Z " fill="#2D231F" transform="translate(49,19)"/>
<path d="M0 0 C4.79016959 2.23462006 8.98745115 4.48901975 13 8 C10.12828429 14.51766849 4.37754774 18.20010099 -2 21 C-2.66 19.35 -3.32 17.7 -4 16 C-2.68 15.34 -1.36 14.68 0 14 C-0.33 13.01 -0.66 12.02 -1 11 C1.31 10.34 3.62 9.68 6 9 C6 8.34 6 7.68 6 7 C5.01 6.67 4.02 6.34 3 6 C1.65909241 5.34870203 0.32407669 4.68486725 -1 4 C-0.67 2.68 -0.34 1.36 0 0 Z " fill="#7E2421" transform="translate(59,56)"/>
<path d="M0 0 C4.53853982 5.18690266 8.13271063 11.06168504 9 18 C7.68 18 6.36 18 5 18 C5 17.01 5 16.02 5 15 C3.68 16.32 2.36 17.64 1 19 C-1.475 18.01 -1.475 18.01 -4 17 C-3.66666667 14.66666667 -3.33333333 12.33333333 -3 10 C-2.855625 8.7625 -2.71125 7.525 -2.5625 6.25 C-2 3 -2 3 0 0 Z " fill="#302C34" transform="translate(71,14)"/>
<path d="M0 0 C1.093125 0.0825 2.18625 0.165 3.3125 0.25 C3.90982819 3.01264289 4.3125 5.41032769 4.3125 8.25 C1.3425 8.25 -1.6275 8.25 -4.6875 8.25 C-4.6875 10.89 -4.6875 13.53 -4.6875 16.25 C-5.3475 15.92 -6.0075 15.59 -6.6875 15.25 C-6.6875 14.59 -6.6875 13.93 -6.6875 13.25 C-7.31398438 13.40597656 -7.94046875 13.56195313 -8.5859375 13.72265625 C-9.40320312 13.91730469 -10.22046875 14.11195312 -11.0625 14.3125 C-11.87460937 14.50972656 -12.68671875 14.70695312 -13.5234375 14.91015625 C-15.6875 15.25 -15.6875 15.25 -17.6875 14.25 C-17.3575 12.27 -17.0275 10.29 -16.6875 8.25 C-8.2725 7.26 -8.2725 7.26 0.3125 6.25 C0.3125 5.59 0.3125 4.93 0.3125 4.25 C-1.9975 4.25 -4.3075 4.25 -6.6875 4.25 C-4.79150483 0.68106792 -4.16790733 0.28256999 0 0 Z " fill="#754332" transform="translate(44.6875,17.75)"/>
<path d="M0 0 C0.5775 0.763125 1.155 1.52625 1.75 2.3125 C3.83357198 5.00891579 3.83357198 5.00891579 6.25 6.6875 C6.8275 7.120625 7.405 7.55375 8 8 C8 8.66 8 9.32 8 10 C8.99 10.33 9.98 10.66 11 11 C12.17755913 13.94389782 12.03348696 14.89953913 11 18 C5.78869135 17.59126991 2.60041254 16.918096 -1 13 C-1.8125 9.75 -1.8125 9.75 -2 7 C-1.34 7 -0.68 7 0 7 C0 4.69 0 2.38 0 0 Z " fill="#5A2C1E" transform="translate(27,46)"/>
<path d="M0 0 C0 1.32 0 2.64 0 4 C1.65 4.33 3.3 4.66 5 5 C5 5.66 5 6.32 5 7 C5.66 7.33 6.32 7.66 7 8 C0.95170514 8.89604368 -4.8894576 9.11269443 -11 9 C-11.33 6.69 -11.66 4.38 -12 2 C-7.8794254 0.00214565 -4.54805635 -0.17835515 0 0 Z " fill="#946B60" transform="translate(40,17)"/>
<path d="M0 0 C2.31 0.66 4.62 1.32 7 2 C7.33 3.32 7.66 4.64 8 6 C5.69 6.66 3.38 7.32 1 8 C1 8.66 1 9.32 1 10 C1.99 10.33 2.98 10.66 4 11 C1.35541621 12.32229189 -0.67761301 12.09677194 -3.625 12.0625 C-4.62789062 12.05347656 -5.63078125 12.04445313 -6.6640625 12.03515625 C-7.43492188 12.02355469 -8.20578125 12.01195313 -9 12 C-9.33 11.01 -9.66 10.02 -10 9 C-8.68 8.67 -7.36 8.34 -6 8 C-7.32 7.67 -8.64 7.34 -10 7 C-9.01 7 -8.02 7 -7 7 C-7 6.34 -7 5.68 -7 5 C-5.03277992 3.61876037 -3.03131672 2.28511874 -1 1 C-0.67 0.67 -0.34 0.34 0 0 Z " fill="#7F1F1C" transform="translate(57,59)"/>
<path d="M0 0 C-0.375 2.4375 -0.375 2.4375 -1 5 C-1.99 5.495 -1.99 5.495 -3 6 C-2.34 6.33 -1.68 6.66 -1 7 C-1 7.66 -1 8.32 -1 9 C-1.66 9 -2.32 9 -3 9 C-3 9.66 -3 10.32 -3 11 C-4.62626404 12.38232443 -6.2925002 13.71937515 -8 15 C-8.33 13.68 -8.66 12.36 -9 11 C-9.66 11 -10.32 11 -11 11 C-11 8.03 -11 5.06 -11 2 C-9.54494642 1.47007308 -8.08581873 0.9513211 -6.625 0.4375 C-5.81289063 0.14746094 -5.00078125 -0.14257812 -4.1640625 -0.44140625 C-2 -1 -2 -1 0 0 Z " fill="#CECFCF" transform="translate(33,1)"/>
<path d="M0 0 C0.57184845 8.21237916 -0.73317769 14.46005743 -4 22 C-4.66 22 -5.32 22 -6 22 C-5.94815917 18.89446608 -5.8531005 15.79172169 -5.75 12.6875 C-5.73582031 11.80642578 -5.72164063 10.92535156 -5.70703125 10.01757812 C-5.45870893 3.48670101 -5.45870893 3.48670101 -3.015625 0.89453125 C-1 0 -1 0 0 0 Z " fill="#45413E" transform="translate(80,38)"/>
<path d="M0 0 C-0.33 0.99 -0.66 1.98 -1 3 C-1.99 3.33 -2.98 3.66 -4 4 C-5.00478037 5.8522367 -5.00478037 5.8522367 -5 8 C-3.64555699 9.77190909 -3.64555699 9.77190909 -2 11 C-2.763125 10.814375 -3.52625 10.62875 -4.3125 10.4375 C-7.08967375 9.77180827 -7.08967375 9.77180827 -10 11 C-13.69790046 9.76736651 -13.9354846 8.79947549 -15.6875 5.4375 C-16.12449219 4.61121094 -16.56148437 3.78492188 -17.01171875 2.93359375 C-17.33785156 2.29550781 -17.66398437 1.65742187 -18 1 C-16.02 1.99 -16.02 1.99 -14 3 C-14 3.99 -14 4.98 -14 6 C-13.15695313 5.566875 -12.31390625 5.13375 -11.4453125 4.6875 C-10.34960938 4.130625 -9.25390625 3.57375 -8.125 3 C-7.03445313 2.443125 -5.94390625 1.88625 -4.8203125 1.3125 C-2 0 -2 0 0 0 Z " fill="#A54B41" transform="translate(21,56)"/>
<path d="M0 0 C0 0.99 0 1.98 0 3 C-4.62 3.33 -9.24 3.66 -14 4 C-14 4.66 -14 5.32 -14 6 C-15.45792884 6.05399736 -16.91642712 6.09279177 -18.375 6.125 C-19.18710937 6.14820312 -19.99921875 6.17140625 -20.8359375 6.1953125 C-23 6 -23 6 -25 4 C-23 1 -23 1 -19.8125 0.3125 C-13.24222929 -0.29698708 -6.59234401 -0.07725403 0 0 Z " fill="#8F201C" transform="translate(45,71)"/>
<path d="M0 0 C4.79016959 2.23462006 8.98745115 4.48901975 13 8 C12.25 9.9375 12.25 9.9375 11 12 C8.875 12.75 8.875 12.75 7 13 C7 11.02 7 9.04 7 7 C6.13375 6.814375 6.13375 6.814375 5.25 6.625 C2.97664233 5.99351176 1.0746471 5.11141809 -1 4 C-0.67 2.68 -0.34 1.36 0 0 Z " fill="#8E362F" transform="translate(59,56)"/>
<path d="M0 0 C2.97 0 5.94 0 9 0 C9.38218767 1.65614657 9.71395102 3.32457024 10 5 C9 6 9 6 6.93359375 6.09765625 C6.10988281 6.08605469 5.28617188 6.07445312 4.4375 6.0625 C3.61121094 6.05347656 2.78492188 6.04445313 1.93359375 6.03515625 C1.29550781 6.02355469 0.65742187 6.01195312 0 6 C-1.125 2.25 -1.125 2.25 0 0 Z " fill="#281E1B" transform="translate(40,26)"/>
<path d="M0 0 C0.28875 0.598125 0.5775 1.19625 0.875 1.8125 C2.04742026 4.19327792 2.04742026 4.19327792 4 7 C4.39387788 9.32387947 4.73486085 11.65793749 5 14 C1.59244728 12.07119658 -1.74147635 10.1723491 -5 8 C-4.67 6.68 -4.34 5.36 -4 4 C-2.68 4 -1.36 4 0 4 C0 2.68 0 1.36 0 0 Z " fill="#79847E" transform="translate(22,32)"/>
<path d="M0 0 C0.99 0.66 1.98 1.32 3 2 C3 2.66 3 3.32 3 4 C3.99 4.33 4.98 4.66 6 5 C6 5.66 6 6.32 6 7 C6.66 7.33 7.32 7.66 8 8 C7.67 8.66 7.34 9.32 7 10 C4.69 10 2.38 10 0 10 C0 9.34 0 8.68 0 8 C-0.66 8 -1.32 8 -2 8 C-2 7.01 -2 6.02 -2 5 C-2.66 4.34 -3.32 3.68 -4 3 C-3 1 -3 1 0 0 Z " fill="#99372D" transform="translate(22,59)"/>
<path d="M0 0 C1.485 0.99 1.485 0.99 3 2 C3 2.99 3 3.98 3 5 C4.32 5.33 5.64 5.66 7 6 C7.33 7.98 7.66 9.96 8 12 C12.455 11.505 12.455 11.505 17 11 C16.67 11.66 16.34 12.32 16 13 C13.71484375 13.4140625 13.71484375 13.4140625 10.9375 13.625 C10.01839844 13.69976562 9.09929688 13.77453125 8.15234375 13.8515625 C7.44207031 13.90054688 6.73179688 13.94953125 6 14 C5.71125 13.360625 5.4225 12.72125 5.125 12.0625 C4.17176549 9.84793921 4.17176549 9.84793921 2 9 C1.4375 7.25 1.4375 7.25 1 5 C0.814375 4.0925 0.62875 3.185 0.4375 2.25 C0.293125 1.5075 0.14875 0.765 0 0 Z " fill="#6C3F32" transform="translate(23,32)"/>
<path d="M0 0 C0.33 0 0.66 0 1 0 C1 1.65 1 3.3 1 5 C1.66 5 2.32 5 3 5 C4.60080151 9.00200378 3.29279692 12.04556236 2 16 C-0.475 15.01 -0.475 15.01 -3 14 C-2.09276387 9.31261335 -1.0452733 4.65806256 0 0 Z " fill="#DBDCDD" transform="translate(21,7)"/>
<path d="M0 0 C1.32 0 2.64 0 4 0 C4.625 1.8125 4.625 1.8125 5 4 C4.01 5.485 4.01 5.485 3 7 C6.3 7 9.6 7 13 7 C13 7.66 13 8.32 13 9 C9.04 9 5.08 9 1 9 C1 9.66 1 10.32 1 11 C0.01 10.67 -0.98 10.34 -2 10 C-1.34 10 -0.68 10 0 10 C0 9.34 0 8.68 0 8 C-0.99 7.67 -1.98 7.34 -3 7 C-2.01 6.34 -1.02 5.68 0 5 C0.25030977 2.41619823 0.25030977 2.41619823 0 0 Z " fill="#4E5550" transform="translate(32,0)"/>
<path d="M0 0 C0.66 0.33 1.32 0.66 2 1 C2.309375 2.11375 2.309375 2.11375 2.625 3.25 C4.66642063 7.33284126 8.08424809 8.85999605 12 11 C10.22265625 12.1015625 10.22265625 12.1015625 8 13 C3.81260649 11.08996085 0.13078055 9.26156109 -2 5 C-1.75203633 2.83031791 -1.55766393 1.55766393 0 0 Z " fill="#1D2023" transform="translate(24,54)"/>
<path d="M0 0 C1.093125 0.0825 2.18625 0.165 3.3125 0.25 C3.90982819 3.01264289 4.3125 5.41032769 4.3125 8.25 C1.6725 8.25 -0.9675 8.25 -3.6875 8.25 C-2.3675 7.59 -1.0475 6.93 0.3125 6.25 C0.3125 5.59 0.3125 4.93 0.3125 4.25 C-1.9975 4.25 -4.3075 4.25 -6.6875 4.25 C-4.79150483 0.68106792 -4.16790733 0.28256999 0 0 Z " fill="#643E34" transform="translate(44.6875,17.75)"/>
<path d="M0 0 C2.97 0 5.94 0 9 0 C8.34 1.32 7.68 2.64 7 4 C2.05228926 5.1797912 -2.8697833 5.10734705 -7.9375 5.0625 C-8.62134766 5.05798828 -9.30519531 5.05347656 -10.00976562 5.04882812 C-11.67321604 5.0371956 -13.3366205 5.01926694 -15 5 C-14.67 4.01 -14.34 3.02 -14 2 C-9.38 2 -4.76 2 0 2 C0 1.34 0 0.68 0 0 Z " fill="#4F1618" transform="translate(46,66)"/>
<path d="M0 0 C1.98 0 3.96 0 6 0 C6.33 1.65 6.66 3.3 7 5 C5.68 5 4.36 5 3 5 C3 6.32 3 7.64 3 9 C5.475 9.99 5.475 9.99 8 11 C4.63458162 12.08174162 3.70152678 11.92538169 0 11 C0 7.37 0 3.74 0 0 Z " fill="#AEB2B0" transform="translate(15,31)"/>
<path d="M0 0 C0.99 0.33 1.98 0.66 3 1 C3.75 3.125 3.75 3.125 4 6 C2.0625 9.3125 2.0625 9.3125 0 12 C-0.99 11.67 -1.98 11.34 -3 11 C-2.25 3.375 -2.25 3.375 0 0 Z " fill="#39313E" transform="translate(73,19)"/>
<path d="M0 0 C0 0.66 0 1.32 0 2 C1.175625 1.9071875 1.175625 1.9071875 2.375 1.8125 C3.674375 1.9053125 3.674375 1.9053125 5 2 C5.99 3.485 5.99 3.485 7 5 C2.545 5.495 2.545 5.495 -2 6 C-2 5.34 -2 4.68 -2 4 C-2.66 4 -3.32 4 -4 4 C-4.66 4.66 -5.32 5.32 -6 6 C-6.99 5.67 -7.98 5.34 -9 5 C-9 4.34 -9 3.68 -9 3 C-8.34 3 -7.68 3 -7 3 C-7 2.34 -7 1.68 -7 1 C-2.25 0 -2.25 0 0 0 Z " fill="#282A2E" transform="translate(40,8)"/>
<path d="M0 0 C2.1519437 3.22791555 2.20086443 4.28400809 2 8 C2.99 8.33 3.98 8.66 5 9 C4.67 10.32 4.34 11.64 4 13 C2.68 13.33 1.36 13.66 0 14 C-2 9.25 -2 9.25 -2 7 C-1.34 7 -0.68 7 0 7 C0 4.69 0 2.38 0 0 Z " fill="#79412D" transform="translate(27,46)"/>
<path d="M0 0 C2 2 2 2 2 5 C4.97 5.33 7.94 5.66 11 6 C11.33 6.99 11.66 7.98 12 9 C7.58937864 10.0257259 5.07369424 10.03684712 1 8 C0.67 5.36 0.34 2.72 0 0 Z " fill="#4E2E25" transform="translate(27,41)"/>
<path d="M0 0 C0.33 0.66 0.66 1.32 1 2 C2.82706125 2.53613267 2.82706125 2.53613267 4.9375 2.875 C8.81266376 3.73460699 8.81266376 3.73460699 10.5 6.125 C10.665 6.74375 10.83 7.3625 11 8 C8 10 8 10 5 10 C4.731875 9.401875 4.46375 8.80375 4.1875 8.1875 C3.11977597 5.95732387 3.11977597 5.95732387 1.375 4.4375 C0 3 0 3 0 0 Z " fill="#D3D4D4" transform="translate(2,52)"/>
<path d="M0 0 C0.99 0 1.98 0 3 0 C3 0.99 3 1.98 3 3 C6.96 3 10.92 3 15 3 C14.67 3.66 14.34 4.32 14 5 C10.98509443 6.00496852 8.95818308 6.10335303 5.8125 6.0625 C4.91144531 6.05347656 4.01039062 6.04445313 3.08203125 6.03515625 C2.39496094 6.02355469 1.70789063 6.01195312 1 6 C0.67 4.02 0.34 2.04 0 0 Z " fill="#BA8D7F" transform="translate(28,20)"/>
<path d="M0 0 C3.4375 0.8125 3.4375 0.8125 7 2 C7.33 2.99 7.66 3.98 8 5 C2.94997778 6.03590199 -1.87416389 6.10251672 -7 6 C-6.21625 5.38125 -5.4325 4.7625 -4.625 4.125 C-2.03162353 2.10141339 -2.03162353 2.10141339 0 0 Z " fill="#661C1B" transform="translate(57,59)"/>
<path d="M0 0 C1.86323318 0.25288812 3.71708432 0.57690153 5.5625 0.9375 C6.57441406 1.13214844 7.58632813 1.32679687 8.62890625 1.52734375 C9.80259766 1.76130859 9.80259766 1.76130859 11 2 C11 2.33 11 2.66 11 3 C7.7 3 4.4 3 1 3 C1 7.29 1 11.58 1 16 C-0.97349374 12.05301251 -1.24970477 10.54807912 -1.1875 6.3125 C-1.18105469 5.33925781 -1.17460937 4.36601562 -1.16796875 3.36328125 C-1 1 -1 1 0 0 Z " fill="#DCDDDE" transform="translate(13,27)"/>
<path d="M0 0 C0.99 0.33 1.98 0.66 3 1 C3 1.66 3 2.32 3 3 C3.8971875 3.433125 3.8971875 3.433125 4.8125 3.875 C7 5 7 5 10 7 C10.6875 9.625 10.6875 9.625 11 12 C10.21625 11.360625 9.4325 10.72125 8.625 10.0625 C6.20460719 8.01857687 6.20460719 8.01857687 4 7 C4 6.34 4 5.68 4 5 C-0.455 4.01 -0.455 4.01 -5 3 C-4.67 2.34 -4.34 1.68 -4 1 C-2.02 1.495 -2.02 1.495 0 2 C0 1.34 0 0.68 0 0 Z " fill="#383939" transform="translate(45,7)"/>
<path d="M0 0 C3.63 0 7.26 0 11 0 C11 0.66 11 1.32 11 2 C10.34 2 9.68 2 9 2 C9 2.66 9 3.32 9 4 C8.34 4 7.68 4 7 4 C6.67 5.65 6.34 7.3 6 9 C4.68 8.67 3.36 8.34 2 8 C2.495 7.21625 2.99 6.4325 3.5 5.625 C5.16537965 3.21447673 5.16537965 3.21447673 5 1 C4.01 1 3.02 1 2 1 C1.67 1.66 1.34 2.32 1 3 C0.67 2.01 0.34 1.02 0 0 Z " fill="#4C291F" transform="translate(40,32)"/>
<path d="M0 0 C0.66 0.33 1.32 0.66 2 1 C2 1.66 2 2.32 2 3 C1.34 3 0.68 3 0 3 C0 3.66 0 4.32 0 5 C-1.62626404 6.38232443 -3.2925002 7.71937515 -5 9 C-5.33 6.03 -5.66 3.06 -6 0 C-3 -1 -3 -1 0 0 Z " fill="#9CA29E" transform="translate(30,7)"/>
<path d="M0 0 C1.65 0 3.3 0 5 0 C5.268125 0.78375 5.53625 1.5675 5.8125 2.375 C6.84814432 5.28114923 6.84814432 5.28114923 10 7 C9.67 7.66 9.34 8.32 9 9 C7.02 9 5.04 9 3 9 C2.87625 7.88625 2.7525 6.7725 2.625 5.625 C2.3534187 1.96896323 2.3534187 1.96896323 0 0 Z " fill="#39221B" transform="translate(35,55)"/>
<path d="M0 0 C0.66 1.32 1.32 2.64 2 4 C1.195625 4.268125 0.39125 4.53625 -0.4375 4.8125 C-1.283125 5.204375 -2.12875 5.59625 -3 6 C-3.33 6.99 -3.66 7.98 -4 9 C-4.66 9 -5.32 9 -6 9 C-6.33 7.02 -6.66 5.04 -7 3 C-2.25 0 -2.25 0 0 0 Z " fill="#BC8066" transform="translate(38,31)"/>
<path d="M0 0 C1.65 0 3.3 0 5 0 C5.33 1.65 5.66 3.3 6 5 C3.69 5.33 1.38 5.66 -1 6 C-1.33 5.01 -1.66 4.02 -2 3 C-1.01 3 -0.02 3 1 3 C0.67 2.01 0.34 1.02 0 0 Z " fill="#3C261F" transform="translate(30,27)"/>
<path d="M0 0 C1.98 0.99 1.98 0.99 4 2 C4 2.99 4 3.98 4 5 C4.94875 4.484375 5.8975 3.96875 6.875 3.4375 C7.90625 2.963125 8.9375 2.48875 10 2 C10.66 2.33 11.32 2.66 12 3 C11.34 4.32 10.68 5.64 10 7 C8.68 7 7.36 7 6 7 C5.67 7.66 5.34 8.32 5 9 C3.35 6.03 1.7 3.06 0 0 Z " fill="#98675F" transform="translate(3,57)"/>
<path d="M0 0 C4.88135593 4.27118644 4.88135593 4.27118644 5.4375 7.6875 C5 10 5 10 3 12 C0.875 11.625 0.875 11.625 -1 11 C-0.505 10.566875 -0.01 10.13375 0.5 9.6875 C2.33218192 8.00259517 2.33218192 8.00259517 2 5 C1.34 4.67 0.68 4.34 0 4 C0 2.68 0 1.36 0 0 Z " fill="#6A3624" transform="translate(29,50)"/>
<path d="M0 0 C4 3 4 3 4.5625 6.5 C4 10 4 10 1.5 11.9375 C0.675 12.288125 -0.15 12.63875 -1 13 C-1 12.01 -1 11.02 -1 10 C-0.34 10 0.32 10 1 10 C0.67 6.7 0.34 3.4 0 0 Z " fill="#B2B5B3" transform="translate(23,43)"/>
<path d="M0 0 C0.33 0 0.66 0 1 0 C1.05392397 2.77109307 1.09363455 5.54113818 1.125 8.3125 C1.14175781 9.09818359 1.15851563 9.88386719 1.17578125 10.69335938 C1.18222656 11.45068359 1.18867187 12.20800781 1.1953125 12.98828125 C1.20578613 13.68477783 1.21625977 14.38127441 1.22705078 15.09887695 C1 17 1 17 -1 20 C-1.66 19.67 -2.32 19.34 -3 19 C-2.01 12.73 -1.02 6.46 0 0 Z " fill="#2B2B2B" transform="translate(74,44)"/>
<path d="M0 0 C0.66 0.66 1.32 1.32 2 2 C0.75 3.5625 0.75 3.5625 -1 5 C-3 4.9375 -3 4.9375 -5 4 C-6.75 1.9375 -6.75 1.9375 -8 0 C-4.67679974 -1.10773342 -3.30835256 -0.93312508 0 0 Z " fill="#81322B" transform="translate(17,66)"/>
<path d="M0 0 C0.33 0 0.66 0 1 0 C1.37851209 5.93002267 0.10575375 10.47239641 -2 16 C-2.33 16 -2.66 16 -3 16 C-2.88544319 14.08268082 -2.75793742 12.1661325 -2.625 10.25 C-2.55539063 9.18265625 -2.48578125 8.1153125 -2.4140625 7.015625 C-2.0271777 4.19793568 -1.44313834 2.4169634 0 0 Z " fill="#776D5F" transform="translate(79,42)"/>
<path d="M0 0 C0.90105469 0.00902344 1.80210938 0.01804687 2.73046875 0.02734375 C3.41753906 0.03894531 4.10460938 0.05054687 4.8125 0.0625 C4.8125 1.0525 4.8125 2.0425 4.8125 3.0625 C3.21134424 3.3118357 1.60629841 3.53628648 0 3.75 C-1.33998047 3.94142578 -1.33998047 3.94142578 -2.70703125 4.13671875 C-5.1875 4.0625 -5.1875 4.0625 -7.01171875 2.58203125 C-7.39972656 2.08058594 -7.78773437 1.57914062 -8.1875 1.0625 C-5.17259443 0.05753148 -3.14568308 -0.04085303 0 0 Z " fill="#631D1C" transform="translate(24.1875,70.9375)"/>
<path d="M0 0 C0.51046875 0.15339844 1.0209375 0.30679688 1.546875 0.46484375 C4.7749338 1.16905403 7.95418001 1.34888204 11.25 1.5625 C12.51328125 1.64628906 13.7765625 1.73007813 15.078125 1.81640625 C16.04234375 1.87699219 17.0065625 1.93757813 18 2 C18 2.33 18 2.66 18 3 C15.47958689 3.19667089 12.95911728 3.38254317 10.4375 3.5625 C9.73302734 3.61857422 9.02855469 3.67464844 8.30273438 3.73242188 C3.68561569 4.05157754 -0.4408752 3.80878035 -5 3 C-5 2.67 -5 2.34 -5 2 C-3.35 1.67 -1.7 1.34 0 1 C0 0.67 0 0.34 0 0 Z " fill="#6F1D1C" transform="translate(28,65)"/>
<path d="M0 0 C3.96 0 7.92 0 12 0 C11.01 0.66 10.02 1.32 9 2 C9.33 3.98 9.66 5.96 10 8 C8.5 6.6875 8.5 6.6875 7 5 C7 4.01 7 3.02 7 2 C5.35 2.33 3.7 2.66 2 3 C1.34 2.01 0.68 1.02 0 0 Z " fill="#28332D" transform="translate(37,0)"/>
<path d="M0 0 C1.23556641 0.01740234 1.23556641 0.01740234 2.49609375 0.03515625 C3.32238281 0.04417969 4.14867187 0.05320312 5 0.0625 C5.63808594 0.07410156 6.27617187 0.08570312 6.93359375 0.09765625 C7.26359375 1.08765625 7.59359375 2.07765625 7.93359375 3.09765625 C6.47566491 3.15165361 5.01716663 3.19044802 3.55859375 3.22265625 C2.74648438 3.24585937 1.934375 3.2690625 1.09765625 3.29296875 C-1.06640625 3.09765625 -1.06640625 3.09765625 -3.06640625 1.09765625 C-2.06640625 0.09765625 -2.06640625 0.09765625 0 0 Z " fill="#852823" transform="translate(23.06640625,73.90234375)"/>
<path d="M0 0 C0.66 0.33 1.32 0.66 2 1 C1.67 2.65 1.34 4.3 1 6 C-1.64 6.33 -4.28 6.66 -7 7 C-6.360625 6.7525 -5.72125 6.505 -5.0625 6.25 C-2.80939427 5.19851273 -2.80939427 5.19851273 -2.375 2.9375 C-2.189375 1.9784375 -2.189375 1.9784375 -2 1 C-1.34 0.67 -0.68 0.34 0 0 Z " fill="#B9BBB9" transform="translate(31,0)"/>
<path d="M0 0 C0.99 0.66 1.98 1.32 3 2 C3 2.66 3 3.32 3 4 C3.99 4.33 4.98 4.66 6 5 C2.18510326 6.46726798 -0.29011622 5.43336419 -4 4 C-3.67 3.01 -3.34 2.02 -3 1 C-2.01 0.67 -1.02 0.34 0 0 Z " fill="#7A2E26" transform="translate(22,59)"/>
<path d="M0 0 C0.66 0 1.32 0 2 0 C2.6875 2.8125 2.6875 2.8125 3 6 C1.5625 7.875 1.5625 7.875 0 9 C-0.33 8.67 -0.66 8.34 -1 8 C-0.82364548 5.30917128 -0.38164079 2.67148554 0 0 Z " fill="#92685B" transform="translate(26,20)"/>
<path d="M0 0 C0.99 0.33 1.98 0.66 3 1 C2.34 4.3 1.68 7.6 1 11 C0.01 10.67 -0.98 10.34 -2 10 C-1.34 10 -0.68 10 0 10 C0 9.34 0 8.68 0 8 C-0.99 7.67 -1.98 7.34 -3 7 C-2.01 6.34 -1.02 5.68 0 5 C0.25030977 2.41619823 0.25030977 2.41619823 0 0 Z " fill="#737A73" transform="translate(32,0)"/>
<path d="M0 0 C2 2 2 2 3 5 C3.99 5.33 4.98 5.66 6 6 C6 6.99 6 7.98 6 9 C4.35 8.67 2.7 8.34 1 8 C0.67 5.36 0.34 2.72 0 0 Z " fill="#372823" transform="translate(27,41)"/>
<path d="M0 0 C2 2 2 2 2.125 5.125 C2.08375 6.07375 2.0425 7.0225 2 8 C1.01 8.33 0.02 8.66 -1 9 C-1.09765625 2.84765625 -1.09765625 2.84765625 -1 1 C-0.67 0.67 -0.34 0.34 0 0 Z " fill="#BFC1BF" transform="translate(1,38)"/>
<path d="M0 0 C0.99 0.33 1.98 0.66 3 1 C2.125 7.75 2.125 7.75 1 10 C0.01 9.67 -0.98 9.34 -2 9 C-2 8.34 -2 7.68 -2 7 C-1.34 7 -0.68 7 0 7 C0 6.34 0 5.68 0 5 C0.66 5 1.32 5 2 5 C2 4.01 2 3.02 2 2 C1.01 1.67 0.02 1.34 -1 1 C-0.67 0.67 -0.34 0.34 0 0 Z " fill="#362B27" transform="translate(55,30)"/>
<path d="M0 0 C0.66 0 1.32 0 2 0 C2.33 0.99 2.66 1.98 3 3 C2.01 3 1.02 3 0 3 C0 3.66 0 4.32 0 5 C-0.99 5.495 -0.99 5.495 -2 6 C-2.65555119 8.52733235 -2.65555119 8.52733235 -3 11 C-3.33 11 -3.66 11 -4 11 C-4 8.69 -4 6.38 -4 4 C-3.34 4 -2.68 4 -2 4 C-1.34 2.68 -0.68 1.36 0 0 Z " fill="#434443" transform="translate(28,12)"/>
<path d="M0 0 C0.99 0 1.98 0 3 0 C3 0.66 3 1.32 3 2 C3.66 2 4.32 2 5 2 C4.34 3.32 3.68 4.64 3 6 C2.01 6 1.02 6 0 6 C0 4.02 0 2.04 0 0 Z " fill="#852F29" transform="translate(66,63)"/>
<path d="M0 0 C0.33 0 0.66 0 1 0 C1 4.29 1 8.58 1 13 C0.34 13 -0.32 13 -1 13 C-1.33 11.02 -1.66 9.04 -2 7 C-1.34 7 -0.68 7 0 7 C0 4.69 0 2.38 0 0 Z " fill="#947970" transform="translate(27,46)"/>
<path d="M0 0 C0.28875 0.598125 0.5775 1.19625 0.875 1.8125 C2.04742026 4.19327792 2.04742026 4.19327792 4 7 C3.34 7.66 2.68 8.32 2 9 C1.67 8.01 1.34 7.02 1 6 C-0.65 6 -2.3 6 -4 6 C-4 5.34 -4 4.68 -4 4 C-2.68 4 -1.36 4 0 4 C0 2.68 0 1.36 0 0 Z " fill="#8D7A71" transform="translate(22,32)"/>
<path d="M0 0 C0.99 0.33 1.98 0.66 3 1 C2.67 1.66 2.34 2.32 2 3 C2.66 3.33 3.32 3.66 4 4 C2.02 4.33 0.04 4.66 -2 5 C-2.33 5.99 -2.66 6.98 -3 8 C-3 6.35 -3 4.7 -3 3 C-2.01 2.67 -1.02 2.34 0 2 C0 1.34 0 0.68 0 0 Z " fill="#222527" transform="translate(28,15)"/>
<path d="M0 0 C1.65 0 3.3 0 5 0 C5.66 1.32 6.32 2.64 7 4 C5.68 4.33 4.36 4.66 3 5 C3 4.34 3 3.68 3 3 C2.01 2.67 1.02 2.34 0 2 C0 1.34 0 0.68 0 0 Z " fill="#4A2E27" transform="translate(34,37)"/>
<path d="M0 0 C0 0.66 0 1.32 0 2 C-3.9813783 3.3271261 -7.85045227 3.06915913 -12 3 C-7.87960164 0.25306776 -4.92304458 0 0 0 Z " fill="#7B1D1B" transform="translate(59,64)"/>
<path d="M0 0 C1.65 0.33 3.3 0.66 5 1 C4.01 1.33 3.02 1.66 2 2 C1.67 2.99 1.34 3.98 1 5 C0.01 4.67 -0.98 4.34 -2 4 C-2 3.34 -2 2.68 -2 2 C-1.34 2 -0.68 2 0 2 C0 1.34 0 0.68 0 0 Z " fill="#343436" transform="translate(33,9)"/>
<path d="M0 0 C3.87132028 0.57352893 6.08172796 2.48704352 9 5 C7.35 5.33 5.7 5.66 4 6 C3.71125 5.38125 3.4225 4.7625 3.125 4.125 C2.06279958 1.86674235 2.06279958 1.86674235 0 0 Z " fill="#B5B0AC" transform="translate(3,56)"/>
<path d="M0 0 C0.33 0.99 0.66 1.98 1 3 C1.66 3 2.32 3 3 3 C3 3.66 3 4.32 3 5 C1.35 5.33 -0.3 5.66 -2 6 C-2.33 4.68 -2.66 3.36 -3 2 C-2.34 2 -1.68 2 -1 2 C-0.67 1.34 -0.34 0.68 0 0 Z " fill="#955D48" transform="translate(26,29)"/>
<path d="M0 0 C0 1.65 0 3.3 0 5 C-1.65 4.67 -3.3 4.34 -5 4 C-5 3.34 -5 2.68 -5 2 C-1.125 0 -1.125 0 0 0 Z " fill="#C0C4C3" transform="translate(24,16)"/>
</svg>
